<svg width="117" height="101" viewBox="0 0 117 101" fill="none" xmlns="http://www.w3.org/2000/svg">
<g clip-path="url(#clip0)">
<path d="M76.4418 44.0947H39.844C36.3549 44.0947 33.5263 46.9233 33.5263 50.4124V87.0102C33.5263 90.4994 36.3549 93.3279 39.844 93.3279H76.4418C79.931 93.3279 82.7595 90.4994 82.7595 87.0102V50.4124C82.7595 46.9233 79.931 44.0947 76.4418 44.0947Z" fill="#0052CC"/>
<path d="M58.4775 82.9748C59.8072 81.6449 60.5542 79.8412 60.5542 77.9606C60.5542 76.0799 59.8072 74.2763 58.4775 72.9464L49.2182 63.707L45.0081 67.9022C44.797 68.1146 44.6786 68.4018 44.6786 68.7013C44.6786 69.0007 44.797 69.2879 45.0081 69.5003L58.4575 82.9848L58.4775 82.9748Z" fill="white"/>
<path d="M71.942 67.8972L58.4576 54.4478L58.4176 54.4927C57.1054 55.8262 56.3733 57.6243 56.3808 59.4952C56.3883 61.366 57.1347 63.1582 58.4576 64.4812L67.7269 73.7105L71.942 69.4954C72.0471 69.3905 72.1305 69.266 72.1874 69.1289C72.2443 68.9918 72.2736 68.8448 72.2736 68.6963C72.2736 68.5479 72.2443 68.4009 72.1874 68.2637C72.1305 68.1266 72.0471 68.0021 71.942 67.8972Z" fill="white"/>
<path d="M58.4576 64.496C57.14 63.1678 56.4008 61.3727 56.4008 59.5018C56.4008 57.6309 57.14 55.8358 58.4576 54.5076L48.8436 64.1115L53.8379 69.1057L58.4526 64.496H58.4576Z" fill="url(#paint0_linear)"/>
<path d="M63.0822 68.3218L58.4775 72.9315C59.1368 73.5905 59.6598 74.373 60.0166 75.2342C60.3734 76.0954 60.5571 77.0185 60.5571 77.9507C60.5571 78.8829 60.3734 79.8059 60.0166 80.6672C59.6598 81.5284 59.1368 82.3108 58.4775 82.9699L68.1014 73.346L63.0822 68.3218Z" fill="url(#paint1_linear)"/>
<path d="M78.2347 38.6409H38.8052C33.057 38.6409 28.3972 43.3007 28.3972 49.0489V88.4784C28.3972 94.2265 33.057 98.8864 38.8052 98.8864H78.2347C83.9829 98.8864 88.6427 94.2265 88.6427 88.4784V49.0489C88.6427 43.3007 83.9829 38.6409 78.2347 38.6409Z" stroke="#79E2F2" stroke-width="2.49712" stroke-miterlimit="10"/>
<path d="M23.6078 30.3455L27.9378 34.6705" stroke="url(#paint2_linear)" stroke-width="2.49712" stroke-miterlimit="10"/>
<path d="M19.9519 34.0012L24.2819 38.3312" stroke="url(#paint3_linear)" stroke-width="2.49712" stroke-miterlimit="10"/>
<path d="M29.8605 36.2888L33.9458 40.3741" stroke="url(#paint4_linear)" stroke-width="2.49712" stroke-miterlimit="10"/>
<path d="M26.2048 39.9446L30.2901 44.0299" stroke="url(#paint5_linear)" stroke-width="2.49712" stroke-miterlimit="10"/>
<path d="M21.68 10.4734H3.19132C1.4288 10.4734 0 11.9022 0 13.6647V32.1534C0 33.9159 1.4288 35.3447 3.19132 35.3447H21.68C23.4425 35.3447 24.8713 33.9159 24.8713 32.1534V13.6647C24.8713 11.9022 23.4425 10.4734 21.68 10.4734Z" fill="#79E2F2"/>
<path d="M67.7169 0.185303H49.2283C47.4657 0.185303 46.0369 1.6141 46.0369 3.37662V21.8653C46.0369 23.6278 47.4657 25.0566 49.2283 25.0566H67.7169C69.4794 25.0566 70.9082 23.6278 70.9082 21.8653V3.37662C70.9082 1.6141 69.4794 0.185303 67.7169 0.185303Z" fill="#79E2F2"/>
<path d="M93.3872 30.2905L89.0622 34.6155" stroke="url(#paint6_linear)" stroke-width="2.49712" stroke-miterlimit="10"/>
<path d="M97.0481 33.9463L92.718 38.2763" stroke="url(#paint7_linear)" stroke-width="2.49712" stroke-miterlimit="10"/>
<path d="M87.1395 36.2288L83.0492 40.319" stroke="url(#paint8_linear)" stroke-width="2.49712" stroke-miterlimit="10"/>
<path d="M90.7953 39.8896L86.71 43.9749" stroke="url(#paint9_linear)" stroke-width="2.49712" stroke-miterlimit="10"/>
<path d="M55.8905 24.0378V29.9061" stroke="url(#paint10_linear)" stroke-width="2.49712" stroke-miterlimit="10"/>
<path d="M61.0645 24.0378V29.9061" stroke="url(#paint11_linear)" stroke-width="2.49712" stroke-miterlimit="10"/>
<path d="M55.8905 32.8726V37.5921" stroke="url(#paint12_linear)" stroke-width="2.49712" stroke-miterlimit="10"/>
<path d="M61.0645 32.8726V37.5921" stroke="url(#paint13_linear)" stroke-width="2.49712" stroke-miterlimit="10"/>
<path d="M113.809 10.4185H95.32C93.5575 10.4185 92.1287 11.8473 92.1287 13.6098V32.0984C92.1287 33.861 93.5575 35.2898 95.32 35.2898H113.809C115.571 35.2898 117 33.861 117 32.0984V13.6098C117 11.8473 115.571 10.4185 113.809 10.4185Z" fill="#79E2F2"/>
<path fill-rule="evenodd" clip-rule="evenodd" d="M9.44417 17.9199L5.11416 22.2399C5.02439 22.3252 4.95448 22.4292 4.9094 22.5446C4.85994 22.6597 4.83443 22.7838 4.83443 22.9091C4.83443 23.0345 4.85994 23.1585 4.9094 23.2737C4.9555 23.39 5.02522 23.4954 5.11416 23.5834L9.44417 27.9084C9.63613 28.0569 9.87559 28.1304 10.1178 28.1152C10.36 28.1 10.5884 27.9972 10.7603 27.8259C10.9323 27.6546 11.0359 27.4265 11.052 27.1844C11.068 26.9422 10.9954 26.7025 10.8475 26.51L7.27167 22.9091L10.8575 19.3333C10.9504 19.2405 11.0241 19.1303 11.0743 19.0091C11.1246 18.8878 11.1505 18.7578 11.1505 18.6266C11.1505 18.4953 11.1246 18.3653 11.0743 18.2441C11.0241 18.1228 10.9504 18.0127 10.8575 17.9199C10.7649 17.8259 10.6546 17.7512 10.5329 17.7002C10.2863 17.6002 10.0104 17.6002 9.7638 17.7002C9.64214 17.7512 9.5318 17.8259 9.43917 17.9199H9.44417ZM14.0139 17.9199C13.918 18.0109 13.8431 18.1217 13.7941 18.2445C13.7447 18.365 13.7192 18.4939 13.7192 18.6241C13.7186 18.756 13.744 18.8867 13.7941 19.0086C13.8444 19.1293 13.9192 19.2382 14.0139 19.3283L17.5998 22.9091L14.0139 26.49C13.918 26.5811 13.8431 26.6918 13.7941 26.8146C13.7447 26.9351 13.7192 27.064 13.7192 27.1942C13.7191 27.326 13.7451 27.4565 13.7957 27.5782C13.8463 27.7 13.9204 27.8105 14.0139 27.9034C14.1082 27.9941 14.2182 28.0668 14.3385 28.1181C14.5832 28.2194 14.858 28.2194 15.1026 28.1181C15.223 28.0668 15.333 27.9941 15.4273 27.9034L19.7573 23.5834C19.8461 23.495 19.9165 23.3899 19.9645 23.2742C20.0125 23.1585 20.0371 23.0344 20.0369 22.9091C20.037 22.7846 20.0124 22.6613 19.9643 22.5464C19.9163 22.4315 19.8459 22.3273 19.7573 22.2399L15.4273 17.9199C15.2879 17.7796 15.1101 17.6839 14.9163 17.6447C14.7224 17.6056 14.5214 17.6249 14.3385 17.7002C14.2157 17.7491 14.1049 17.824 14.0139 17.9199Z" fill="#00A3BF"/>
<path d="M102.247 14.8085C102.483 14.8071 102.717 14.8523 102.936 14.9415C103.154 15.0306 103.353 15.162 103.521 15.328C103.689 15.494 103.823 15.6915 103.914 15.9091C104.006 16.1268 104.054 16.3603 104.055 16.5964V16.7462L103.88 19.0186C103.835 19.4605 103.624 19.8689 103.291 20.1623C102.966 20.4582 102.542 20.6205 102.102 20.6168C102.008 21.307 101.962 22.0028 101.962 22.6994V22.8392C101.963 23.5945 102.017 24.3487 102.122 25.0966C102.563 25.0949 102.988 25.2587 103.314 25.5556C103.639 25.8525 103.841 26.2608 103.88 26.6997L104.07 28.9671C104.088 29.2019 104.06 29.4381 103.987 29.662C103.915 29.886 103.798 30.0934 103.645 30.2725C103.492 30.4515 103.305 30.5986 103.095 30.7054C102.886 30.8122 102.657 30.8766 102.422 30.8949H100.924C100.372 30.8852 99.8361 30.7061 99.3895 30.3818C98.9428 30.0575 98.6066 29.6037 98.4265 29.082C97.7067 27.0776 97.3384 24.9639 97.3377 22.8342V22.6994C97.3331 20.6163 97.7019 18.5493 98.4265 16.5964C98.6049 16.0752 98.9412 15.6225 99.3887 15.3012C99.8362 14.9799 100.373 14.8059 100.924 14.8035L102.247 14.8085ZM102.247 16.5964H100.924C100.744 16.6058 100.571 16.6703 100.429 16.7811C100.287 16.8918 100.182 17.0435 100.129 17.2157C99.4696 18.9721 99.1313 20.833 99.1306 22.7093V22.8442C99.1259 24.7557 99.4537 26.6535 100.1 28.4527C100.147 28.635 100.251 28.7976 100.396 28.9177C100.541 29.0378 100.721 29.1092 100.909 29.1219H102.222L102.032 26.8895H100.534L100.434 26.1554C100.236 25.0627 100.134 23.9547 100.129 22.8442V22.7093C100.129 21.6574 100.224 20.6076 100.414 19.573L100.544 18.8338H102.042L102.247 16.5964ZM109.873 21.5157C110.229 21.4939 110.579 21.6142 110.846 21.8502C111.113 22.0862 111.275 22.4186 111.297 22.7743C111.318 23.1299 111.198 23.4797 110.962 23.7466C110.726 24.0135 110.394 24.1758 110.038 24.1976C109.983 24.2026 109.928 24.2026 109.873 24.1976C109.702 24.1969 109.532 24.1629 109.374 24.0977C109.209 24.0323 109.059 23.9337 108.934 23.8081C108.81 23.6828 108.71 23.5354 108.64 23.3736C108.573 23.2154 108.537 23.0458 108.535 22.8742C108.533 22.6971 108.567 22.5215 108.634 22.3574C108.7 22.1933 108.798 22.0439 108.923 21.9177C109.047 21.7916 109.195 21.6912 109.358 21.6222C109.521 21.5532 109.696 21.517 109.873 21.5157ZM106.252 21.5157C106.608 21.4939 106.958 21.6142 107.225 21.8502C107.492 22.0862 107.654 22.4186 107.676 22.7743C107.698 23.1299 107.577 23.4797 107.341 23.7466C107.105 24.0135 106.773 24.1758 106.417 24.1976C106.362 24.2026 106.307 24.2026 106.252 24.1976C106.081 24.1969 105.911 24.1629 105.753 24.0977C105.588 24.0323 105.439 23.9337 105.314 23.8081C105.189 23.6828 105.089 23.5354 105.019 23.3736C104.952 23.2154 104.916 23.0458 104.914 22.8742C104.915 22.6971 104.951 22.522 105.02 22.3589C105.089 22.1958 105.19 22.0479 105.316 21.9236C105.442 21.7993 105.591 21.7011 105.756 21.6345C105.92 21.568 106.095 21.5344 106.272 21.5357L106.252 21.5157Z" fill="#00A3BF"/>
<path d="M60.5352 7.83643H55.7058C55.4925 7.83643 55.288 7.92114 55.1372 8.07193C54.9864 8.22273 54.9017 8.42725 54.9017 8.6405C54.9017 8.85375 54.9864 9.05827 55.1372 9.20906C55.288 9.35986 55.4925 9.44457 55.7058 9.44457H60.5352C60.7485 9.44457 60.953 9.35986 61.1038 9.20906C61.2546 9.05827 61.3393 8.85375 61.3393 8.6405C61.3393 8.42725 61.2546 8.22273 61.1038 8.07193C60.953 7.92114 60.7485 7.83643 60.5352 7.83643Z" fill="#00A3BF"/>
<path d="M60.5351 10.2488H55.7057C55.5027 10.2648 55.3132 10.3567 55.1751 10.5062C55.0369 10.6557 54.9601 10.8518 54.9601 11.0553C54.9601 11.2589 55.0369 11.455 55.1751 11.6045C55.3132 11.754 55.5027 11.8459 55.7057 11.8619H60.5351C60.738 11.8459 60.9275 11.754 61.0657 11.6045C61.2039 11.455 61.2806 11.2589 61.2806 11.0553C61.2806 10.8518 61.2039 10.6557 61.0657 10.5062C60.9275 10.3567 60.738 10.2648 60.5351 10.2488Z" fill="#00A3BF"/>
<path d="M57.3189 12.6709H55.7058C55.4925 12.6709 55.288 12.7556 55.1372 12.9064C54.9864 13.0572 54.9017 13.2617 54.9017 13.475C54.9017 13.6882 54.9864 13.8927 55.1372 14.0435C55.288 14.1943 55.4925 14.279 55.7058 14.279H57.3189C57.5322 14.279 57.7367 14.1943 57.8875 14.0435C58.0383 13.8927 58.123 13.6882 58.123 13.475C58.123 13.2617 58.0383 13.0572 57.8875 12.9064C57.7367 12.7556 57.5322 12.6709 57.3189 12.6709Z" fill="#00A3BF"/>
<path d="M54.0976 6.22829V19.0984H62.1433V6.22829H54.0976ZM52.4894 6.22829C52.4921 5.80265 52.6633 5.39542 52.9657 5.09585C53.2681 4.79628 53.6769 4.6288 54.1026 4.63013H62.1383C62.5639 4.6288 62.9728 4.79628 63.2751 5.09585C63.5775 5.39542 63.7488 5.80265 63.7514 6.22829V19.1084C63.7508 19.3196 63.7085 19.5286 63.6271 19.7235C63.5457 19.9183 63.4267 20.0952 63.2769 20.2441C63.1271 20.393 62.9494 20.5109 62.7541 20.5911C62.5587 20.6713 62.3495 20.7122 62.1383 20.7116H54.1026C53.8914 20.7122 53.6821 20.6713 53.4868 20.5911C53.2914 20.5109 53.1138 20.393 52.964 20.2441C52.8142 20.0952 52.6952 19.9183 52.6137 19.7235C52.5323 19.5286 52.4901 19.3196 52.4894 19.1084V6.22829Z" fill="#00A3BF"/>
</g>
<defs>
<linearGradient id="paint0_linear" x1="58.2528" y1="59.7016" x2="52.4245" y2="65.5249" gradientUnits="userSpaceOnUse">
<stop offset="0.07" stop-color="white" stop-opacity="0.4"/>
<stop offset="1" stop-color="white"/>
</linearGradient>
<linearGradient id="paint1_linear" x1="58.8371" y1="77.5861" x2="65.2197" y2="71.2035" gradientUnits="userSpaceOnUse">
<stop offset="0.07" stop-color="white" stop-opacity="0.4"/>
<stop offset="0.91" stop-color="white"/>
</linearGradient>
<linearGradient id="paint2_linear" x1="27.4134" y1="35.3497" x2="24.1321" y2="29.6662" gradientUnits="userSpaceOnUse">
<stop stop-color="#B3F5FF"/>
<stop offset="1" stop-color="#79E2F2"/>
</linearGradient>
<linearGradient id="paint3_linear" x1="225.93" y1="4172.31" x2="197.482" y2="4123.08" gradientUnits="userSpaceOnUse">
<stop stop-color="#B3F5FF"/>
<stop offset="1" stop-color="#79E2F2"/>
</linearGradient>
<linearGradient id="paint4_linear" x1="34.1905" y1="40.2492" x2="29.6158" y2="36.4137" gradientUnits="userSpaceOnUse">
<stop stop-color="#79E2F2"/>
<stop offset="1" stop-color="#00C7E5"/>
</linearGradient>
<linearGradient id="paint5_linear" x1="25.3208" y1="41.9872" x2="31.174" y2="41.9872" gradientUnits="userSpaceOnUse">
<stop stop-color="#00C7E5"/>
<stop offset="1" stop-color="#79E2F2"/>
</linearGradient>
<linearGradient id="paint6_linear" x1="92.8628" y1="29.6113" x2="89.5866" y2="35.2948" gradientUnits="userSpaceOnUse">
<stop stop-color="#79E2F2"/>
<stop offset="1" stop-color="#B3F5FF"/>
</linearGradient>
<linearGradient id="paint7_linear" x1="929.579" y1="4122.55" x2="901.131" y2="4171.78" gradientUnits="userSpaceOnUse">
<stop stop-color="#79E2F2"/>
<stop offset="1" stop-color="#B3F5FF"/>
</linearGradient>
<linearGradient id="paint8_linear" x1="798.726" y1="3485.22" x2="761.218" y2="3516.67" gradientUnits="userSpaceOnUse">
<stop stop-color="#00C7E5"/>
<stop offset="1" stop-color="#79E2F2"/>
</linearGradient>
<linearGradient id="paint9_linear" x1="831.418" y1="3514.04" x2="793.996" y2="3545.49" gradientUnits="userSpaceOnUse">
<stop stop-color="#00C7E5"/>
<stop offset="1" stop-color="#79E2F2"/>
</linearGradient>
<linearGradient id="paint10_linear" x1="-nan" y1="-nan" x2="-nan" y2="-nan" gradientUnits="userSpaceOnUse">
<stop stop-color="#B3F5FF"/>
<stop offset="1" stop-color="#79E2F2"/>
</linearGradient>
<linearGradient id="paint11_linear" x1="-nan" y1="-nan" x2="-nan" y2="-nan" gradientUnits="userSpaceOnUse">
<stop stop-color="#B3F5FF"/>
<stop offset="1" stop-color="#79E2F2"/>
</linearGradient>
<linearGradient id="paint12_linear" x1="-nan" y1="-nan" x2="-nan" y2="-nan" gradientUnits="userSpaceOnUse">
<stop stop-color="#79E2F2"/>
<stop offset="1" stop-color="#00C7E5"/>
</linearGradient>
<linearGradient id="paint13_linear" x1="-nan" y1="-nan" x2="-nan" y2="-nan" gradientUnits="userSpaceOnUse">
<stop stop-color="#79E2F2"/>
<stop offset="1" stop-color="#00C7E5"/>
</linearGradient>
<clipPath id="clip0">
<rect width="117" height="99.9547" fill="white" transform="translate(0 0.185303)"/>
</clipPath>
</defs>
</svg>
